<svg xmlns="http://www.w3.org/2000/svg" viewBox="0 0 40 40" width="512" height="512">
  <circle cx="20" cy="20" r="20" fill="#54487a"/>
  <path fill="#ffffff" d="M9.5 17 L10.5 8 L17.5 12.2 Q20 11.6 22.5 12.2 L29.5 8 L30.5 17 Q31.5 27.5 20 30.5 Q8.5 27.5 9.5 17 Z"/>
  <ellipse fill="#54487a" cx="15.5" cy="19.5" rx="1.5" ry="2.2"/>
  <ellipse fill="#54487a" cx="24.5" cy="19.5" rx="1.5" ry="2.2"/>
  <path fill="#54487a" d="M18.6 23.3 L21.4 23.3 L20 24.8 Z"/>
  <path fill="none" stroke="#54487a" stroke-width="1.1" stroke-linecap="round" d="M20 24.8 V26"/>
  <path fill="none" stroke="#54487a" stroke-width="1.1" stroke-linecap="round" d="M20 26 Q18.6 27.4 17.4 26.6"/>
  <path fill="none" stroke="#54487a" stroke-width="1.1" stroke-linecap="round" d="M20 26 Q21.4 27.4 22.6 26.6"/>
  <path fill="none" stroke="#ffffff" stroke-width="1" stroke-linecap="round" d="M13.5 24 L6.5 22.8"/>
  <path fill="none" stroke="#ffffff" stroke-width="1" stroke-linecap="round" d="M13.5 25.6 L6.5 27.2"/>
  <path fill="none" stroke="#ffffff" stroke-width="1" stroke-linecap="round" d="M26.5 24 L33.5 22.8"/>
  <path fill="none" stroke="#ffffff" stroke-width="1" stroke-linecap="round" d="M26.5 25.6 L33.5 27.2"/>
</svg>
